<?xml version="1.0" standalone="no"?>
<!DOCTYPE svg PUBLIC "-//W3C//DTD SVG 20010904//EN"
 "http://www.w3.org/TR/2001/REC-SVG-20010904/DTD/svg10.dtd">
<svg version="1.0" xmlns="http://www.w3.org/2000/svg"
 width="946.000000pt" height="946.000000pt" viewBox="0 0 946.000000 946.000000"
 preserveAspectRatio="xMidYMid meet">

<g transform="translate(0.000000,946.000000) scale(0.100000,-0.100000)"
fill="#000000" stroke="none">
<path d="M4320 7529 c-294 -215 -632 -461 -751 -546 l-217 -155 -82 -182 c-46
-99 -143 -311 -215 -471 -73 -159 -273 -598 -445 -975 -172 -377 -371 -813
-442 -970 -72 -157 -188 -411 -258 -565 -70 -154 -245 -536 -388 -850 -143
-313 -287 -628 -321 -699 -65 -137 -72 -161 -43 -153 9 2 710 278 1557 612
847 335 1552 610 1567 613 18 3 69 -12 145 -43 128 -52 2460 -976 2791 -1107
136 -54 207 -77 214 -70 9 9 -236 686 -1333 3675 -117 317 -210 579 -208 582
4 3 619 160 1629 414 249 62 267 74 170 102 -48 15 -395 113 -490 139 -19 5
-120 34 -225 64 -104 29 -386 108 -625 176 l-435 122 -240 158 c-132 86 -361
238 -510 335 -148 98 -279 180 -290 182 -14 2 -194 -124 -555 -388z m1484
-1216 c9 -32 21 -67 27 -77 6 -11 198 -528 426 -1150 228 -622 572 -1562 765
-2089 193 -526 349 -960 346 -963 -3 -3 -102 33 -219 79 -446 177 -2051 812
-2429 962 -217 86 -398 160 -402 163 -3 4 -16 68 -27 142 -20 129 -31 202
-100 630 -16 102 -55 345 -86 540 -31 195 -65 409 -76 475 -10 66 -24 149 -29
185 -5 36 -26 164 -45 285 -54 331 -53 310 -19 323 39 14 170 56 274 86 47 13
171 50 275 81 105 31 233 70 285 85 52 16 165 49 250 75 85 26 214 64 285 85
72 21 199 59 284 84 85 25 157 48 159 51 3 3 13 5 23 5 13 0 22 -15 33 -57z"/>
</g>
</svg>
