<?xml version="1.0" standalone="no"?>
<!DOCTYPE svg PUBLIC "-//W3C//DTD SVG 20010904//EN"
 "http://www.w3.org/TR/2001/REC-SVG-20010904/DTD/svg10.dtd">
<svg version="1.0" xmlns="http://www.w3.org/2000/svg"
 width="512.000000pt" height="512.000000pt" viewBox="0 0 512.000000 512.000000"
 preserveAspectRatio="xMidYMid meet">

<g transform="translate(0.000000,512.000000) scale(0.100000,-0.100000)"
fill="#000000" stroke="none">
<path d="M2434 3992 c-105 -75 -272 -195 -371 -267 l-180 -130 -409 -895
c-224 -492 -470 -1030 -545 -1195 -76 -165 -134 -301 -130 -303 6 -2 1157 446
1485 578 27 11 54 20 61 20 7 0 343 -131 746 -290 404 -160 747 -296 762 -302
15 -6 30 -8 33 -6 2 3 -26 93 -65 199 -82 232 -667 1834 -682 1868 -5 13 -8
25 -7 26 2 2 203 53 448 115 245 61 449 115 453 120 5 4 5 10 0 13 -5 3 -207
62 -450 130 l-440 124 -246 162 c-135 88 -251 163 -259 166 -7 3 -99 -57 -204
-133z m760 -939 c240 -650 645 -1759 651 -1785 5 -20 3 -28 -6 -27 -8 0 -345
132 -749 292 l-734 292 -98 610 c-54 336 -97 621 -95 634 2 22 12 28 77 49 74
23 819 248 831 251 3 0 59 -142 123 -316z"/>
</g>
</svg>
